<svg width="648" height="520" viewBox="0 0 648 520" fill="none" xmlns="http://www.w3.org/2000/svg">
<path d="M482.635 133.192C458.969 38.9139 363.358 -18.3281 269.08 5.33794C195.404 23.8329 141.907 87.5099 136.395 163.271C84.0819 171.898 48.6669 221.299 57.2939 273.612C64.9629 320.119 105.261 354.178 152.395 353.991H232.395V321.991H152.395C117.049 321.991 88.3949 293.337 88.3949 257.991C88.3949 222.645 117.049 193.991 152.395 193.991C161.232 193.991 168.395 186.828 168.395 177.991C168.315 98.4619 232.722 33.9259 312.251 33.8469C381.095 33.7779 440.358 82.4479 453.675 149.991C454.99 156.735 460.463 161.887 467.275 162.791C511.017 169.02 541.426 209.529 535.198 253.27C529.605 292.548 496.069 321.793 456.395 321.991H392.395V353.991H456.395C518.251 353.804 568.243 303.508 568.055 241.652C567.899 190.162 532.655 145.411 482.635 133.192Z" fill="#807E7D"/>
<path d="M301.035 198.632L237.035 262.632L259.595 285.192L296.395 248.552V401.992H328.395V248.552L365.035 285.192L387.595 262.632L323.595 198.632C317.354 192.428 307.276 192.428 301.035 198.632Z" fill="#807E7D"/>
<path d="M28.8223 510.89H10.5803L6.98406 519.44H0L16.4178 482.496H23.0891L39.559 519.44H32.4707L28.8223 510.89ZM26.5811 505.507L19.7013 489.357L12.8736 505.507H26.5811Z" fill="#807E7D"/>
<path d="M68.0698 519.44L60.6166 508.621C60.3039 508.656 59.8348 508.674 59.2094 508.674H50.9744V519.44H44.1989V482.496H59.2094C62.3713 482.496 65.1163 483.024 67.4443 484.079C69.8071 485.135 71.6139 486.648 72.8648 488.618C74.1156 490.588 74.7411 492.928 74.7411 495.637C74.7411 498.417 74.0635 500.81 72.7084 502.815C71.388 504.821 69.477 506.316 66.9752 507.301L75.3665 519.44H68.0698ZM67.9134 495.637C67.9134 493.28 67.149 491.468 65.6201 490.201C64.0913 488.935 61.8501 488.301 58.8967 488.301H50.9744V503.026H58.8967C61.8501 503.026 64.0913 502.393 65.6201 501.126C67.149 499.824 67.9134 497.995 67.9134 495.637Z" fill="#807E7D"/>
<path d="M106.193 519.44L98.7394 508.621C98.4267 508.656 97.9576 508.674 97.3322 508.674H89.0973V519.44H82.3217V482.496H97.3322C100.494 482.496 103.239 483.024 105.567 484.079C107.93 485.135 109.737 486.648 110.988 488.618C112.238 490.588 112.864 492.928 112.864 495.637C112.864 498.417 112.186 500.81 110.831 502.815C109.511 504.821 107.6 506.316 105.098 507.301L113.489 519.44H106.193ZM106.036 495.637C106.036 493.28 105.272 491.468 103.743 490.201C102.214 488.935 99.9729 488.301 97.0195 488.301H89.0973V503.026H97.0195C99.9729 503.026 102.214 502.393 103.743 501.126C105.272 499.824 106.036 497.995 106.036 495.637Z" fill="#807E7D"/>
<path d="M144.107 510.89H125.865L122.269 519.44H115.285L131.702 482.496H138.374L154.844 519.44H147.755L144.107 510.89ZM141.866 505.507L134.986 489.357L128.158 505.507H141.866Z" fill="#807E7D"/>
<path d="M170.793 519.968C167.979 519.968 165.251 519.563 162.611 518.754C160.005 517.945 157.937 516.872 156.408 515.535L158.754 510.204C160.248 511.4 162.072 512.386 164.226 513.16C166.415 513.899 168.604 514.268 170.793 514.268C173.504 514.268 175.519 513.828 176.839 512.949C178.195 512.069 178.872 510.908 178.872 509.465C178.872 508.41 178.49 507.548 177.725 506.879C176.996 506.175 176.058 505.63 174.911 505.243C173.764 504.856 172.201 504.416 170.22 503.924C167.44 503.255 165.182 502.586 163.445 501.918C161.742 501.249 160.265 500.211 159.014 498.804C157.798 497.361 157.19 495.426 157.19 492.999C157.19 490.958 157.729 489.111 158.806 487.457C159.918 485.768 161.568 484.431 163.757 483.446C165.981 482.461 168.691 481.968 171.888 481.968C174.112 481.968 176.301 482.249 178.455 482.812C180.609 483.375 182.468 484.185 184.032 485.24L181.895 490.571C180.297 489.621 178.629 488.899 176.892 488.407C175.154 487.914 173.469 487.668 171.836 487.668C169.16 487.668 167.162 488.125 165.842 489.04C164.556 489.955 163.914 491.169 163.914 492.682C163.914 493.737 164.279 494.599 165.008 495.268C165.773 495.936 166.728 496.464 167.875 496.851C169.021 497.238 170.585 497.678 172.566 498.171C175.276 498.804 177.5 499.473 179.237 500.176C180.974 500.845 182.451 501.883 183.667 503.29C184.918 504.698 185.543 506.598 185.543 508.99C185.543 511.031 184.987 512.878 183.876 514.532C182.798 516.186 181.148 517.505 178.924 518.49C176.7 519.475 173.99 519.968 170.793 519.968Z" fill="#807E7D"/>
<path d="M199.154 488.301H187.062V482.496H218.021V488.301H205.93V519.44H199.154V488.301Z" fill="#807E7D"/>
<path d="M246.977 519.44L239.524 508.621C239.211 508.656 238.742 508.674 238.117 508.674H229.882V519.44H223.106V482.496H238.117C241.279 482.496 244.024 483.024 246.352 484.079C248.715 485.135 250.521 486.648 251.772 488.618C253.023 490.588 253.649 492.928 253.649 495.637C253.649 498.417 252.971 500.81 251.616 502.815C250.296 504.821 248.384 506.316 245.883 507.301L254.274 519.44H246.977ZM246.821 495.637C246.821 493.28 246.056 491.468 244.528 490.201C242.999 488.935 240.758 488.301 237.804 488.301H229.882V503.026H237.804C240.758 503.026 242.999 502.393 244.528 501.126C246.056 499.824 246.821 497.995 246.821 495.637Z" fill="#807E7D"/>
<path d="M284.892 510.89H266.65L263.053 519.44H256.069L272.487 482.496H279.158L295.628 519.44H288.54L284.892 510.89ZM282.65 505.507L275.771 489.357L268.943 505.507H282.65Z" fill="#807E7D"/>
<path d="M322.073 488.301H309.982V482.496H340.941V488.301H328.849V519.44H322.073V488.301Z" fill="#807E7D"/>
<path d="M361.052 519.968C356.014 519.968 352.087 518.543 349.273 515.693C346.459 512.808 345.051 508.691 345.051 503.343V482.496H351.827V503.079C351.827 510.327 354.919 513.951 361.104 513.951C367.254 513.951 370.329 510.327 370.329 503.079V482.496H377.001V503.343C377.001 508.691 375.594 512.808 372.779 515.693C369.999 518.543 366.09 519.968 361.052 519.968Z" fill="#807E7D"/>
<path d="M424.556 510.89H406.315L402.718 519.44H395.734L412.152 482.496H418.823L435.293 519.44H428.205L424.556 510.89ZM422.315 505.507L415.436 489.357L408.608 505.507H422.315Z" fill="#807E7D"/>
<path d="M463.804 519.44L456.351 508.621C456.038 508.656 455.569 508.674 454.944 508.674H446.709V519.44H439.933V482.496H454.944C458.106 482.496 460.851 483.024 463.179 484.079C465.541 485.135 467.348 486.648 468.599 488.618C469.85 490.588 470.475 492.928 470.475 495.637C470.475 498.417 469.798 500.81 468.443 502.815C467.122 504.821 465.211 506.316 462.709 507.301L471.101 519.44H463.804ZM463.648 495.637C463.648 493.28 462.883 491.468 461.354 490.201C459.825 488.935 457.584 488.301 454.631 488.301H446.709V503.026H454.631C457.584 503.026 459.825 502.393 461.354 501.126C462.883 499.824 463.648 497.995 463.648 495.637Z" fill="#807E7D"/>
<path d="M494.943 519.968C491.26 519.968 487.924 519.159 484.936 517.54C481.982 515.886 479.654 513.617 477.952 510.732C476.284 507.847 475.45 504.592 475.45 500.968C475.45 497.344 476.301 494.089 478.004 491.204C479.706 488.319 482.034 486.067 484.988 484.449C487.976 482.795 491.312 481.968 494.995 481.968C497.983 481.968 500.711 482.496 503.178 483.551C505.645 484.607 507.729 486.137 509.432 488.143L505.054 492.312C502.413 489.427 499.164 487.985 495.308 487.985C492.806 487.985 490.565 488.548 488.584 489.674C486.604 490.764 485.057 492.295 483.945 494.265C482.834 496.236 482.278 498.47 482.278 500.968C482.278 503.466 482.834 505.7 483.945 507.671C485.057 509.641 486.604 511.189 488.584 512.315C490.565 513.406 492.806 513.951 495.308 513.951C499.164 513.951 502.413 512.491 505.054 509.571L509.432 513.793C507.729 515.799 505.627 517.329 503.126 518.385C500.659 519.44 497.931 519.968 494.943 519.968Z" fill="#807E7D"/>
<path d="M548.343 482.496V519.44H541.567V503.607H522.7V519.44H515.924V482.496H522.7V497.749H541.567V482.496H548.343Z" fill="#807E7D"/>
<path d="M558.119 482.496H564.894V519.44H558.119V482.496Z" fill="#807E7D"/>
<path d="M607.865 482.496L591.968 519.44H585.297L569.348 482.496H576.697L588.841 510.996L601.089 482.496H607.865Z" fill="#807E7D"/>
<path d="M628.351 519.968C624.633 519.968 621.28 519.159 618.292 517.54C615.303 515.886 612.958 513.617 611.255 510.732C609.553 507.811 608.702 504.557 608.702 500.968C608.702 497.379 609.553 494.142 611.255 491.257C612.958 488.336 615.303 486.067 618.292 484.449C621.28 482.795 624.633 481.968 628.351 481.968C632.069 481.968 635.422 482.795 638.41 484.449C641.398 486.067 643.744 488.319 645.446 491.204C647.149 494.089 648 497.344 648 500.968C648 504.592 647.149 507.847 645.446 510.732C643.744 513.617 641.398 515.886 638.41 517.54C635.422 519.159 632.069 519.968 628.351 519.968ZM628.351 513.951C630.783 513.951 632.972 513.406 634.918 512.315C636.864 511.189 638.393 509.641 639.504 507.671C640.616 505.665 641.172 503.431 641.172 500.968C641.172 498.505 640.616 496.288 639.504 494.318C638.393 492.312 636.864 490.764 634.918 489.674C632.972 488.548 630.783 487.985 628.351 487.985C625.919 487.985 623.73 488.548 621.784 489.674C619.838 490.764 618.309 492.312 617.197 494.318C616.085 496.288 615.529 498.505 615.529 500.968C615.529 503.431 616.085 505.665 617.197 507.671C618.309 509.641 619.838 511.189 621.784 512.315C623.73 513.406 625.919 513.951 628.351 513.951Z" fill="#807E7D"/>
</svg>
